<svg width="32" height="32" viewBox="0 0 32 32" fill="none" xmlns="http://www.w3.org/2000/svg">
<rect width="32" height="32" rx="8" fill="#0D1012"/>
<path d="M20.9902 11.3283C20.0724 10.8986 19.0882 10.582 18.0591 10.4007C18.0404 10.3972 18.0217 10.4059 18.012 10.4234C17.8854 10.6531 17.7452 10.9528 17.6471 11.1884C16.5402 11.0193 15.4391 11.0193 14.355 11.1884C14.2568 10.9476 14.1115 10.6531 13.9843 10.4234C13.9747 10.4065 13.956 10.3977 13.9372 10.4007C12.9087 10.5814 11.9245 10.898 11.0062 11.3283C10.9982 11.3318 10.9914 11.3377 10.9869 11.3452C9.12004 14.1912 8.60863 16.9672 8.85951 19.7087C8.86065 19.7221 8.86802 19.735 8.87824 19.7431C10.1099 20.6661 11.303 21.2265 12.474 21.5979C12.4927 21.6037 12.5126 21.5967 12.5245 21.581C12.8015 21.195 13.0484 20.788 13.2601 20.36C13.2726 20.3349 13.2607 20.3052 13.2351 20.2953C12.8435 20.1437 12.4706 19.9589 12.1118 19.749C12.0835 19.7321 12.0812 19.6907 12.1073 19.6708C12.1828 19.6131 12.2583 19.553 12.3304 19.4924C12.3434 19.4813 12.3616 19.479 12.3769 19.486C14.7336 20.5839 17.2849 20.5839 19.6138 19.486C19.6291 19.4784 19.6473 19.4808 19.6609 19.4918C19.733 19.5525 19.8085 19.6131 19.8845 19.6708C19.9106 19.6907 19.9089 19.7321 19.8806 19.749C19.5218 19.9629 19.1489 20.1437 18.7567 20.2947C18.7312 20.3046 18.7198 20.3349 18.7323 20.36C18.9486 20.7874 19.1955 21.1944 19.4673 21.5804C19.4787 21.5967 19.4991 21.6037 19.5179 21.5979C20.6945 21.2265 21.8876 20.6661 23.1193 19.7431C23.1301 19.735 23.1369 19.7227 23.138 19.7093C23.4383 16.5398 22.6351 13.7865 21.0089 11.3458C21.005 11.3377 20.9982 11.3318 20.9902 11.3283ZM13.612 18.0394C12.9025 18.0394 12.3179 17.3747 12.3179 16.5584C12.3179 15.7421 12.8912 15.0774 13.612 15.0774C14.3385 15.0774 14.9175 15.748 14.9061 16.5584C14.9061 17.3747 14.3328 18.0394 13.612 18.0394ZM18.3969 18.0394C17.6874 18.0394 17.1027 17.3747 17.1027 16.5584C17.1027 15.7421 17.676 15.0774 18.3969 15.0774C19.1234 15.0774 19.7023 15.748 19.691 16.5584C19.691 17.3747 19.1234 18.0394 18.3969 18.0394Z" fill="#4D545E"/>
</svg>
