<svg width="32" height="32" viewBox="0 0 32 32" fill="none" xmlns="http://www.w3.org/2000/svg">
<rect width="32" height="32" rx="8" fill="#0D1012"/>
<path d="M23.6655 11.76C23.575 11.4196 23.3967 11.1089 23.1485 10.8591C22.9002 10.6093 22.5907 10.429 22.2509 10.3364C21 10 16 10 16 10C16 10 11 10 9.74909 10.3364C9.40929 10.429 9.09977 10.6093 8.85153 10.8591C8.60328 11.1089 8.425 11.4196 8.33454 11.76C8 13.0164 8 15.6364 8 15.6364C8 15.6364 8 18.2564 8.33454 19.5127C8.425 19.8531 8.60328 20.1638 8.85153 20.4136C9.09977 20.6635 9.40929 20.8437 9.74909 20.9364C11 21.2727 16 21.2727 16 21.2727C16 21.2727 21 21.2727 22.2509 20.9364C22.5907 20.8437 22.9002 20.6635 23.1485 20.4136C23.3967 20.1638 23.575 19.8531 23.6655 19.5127C24 18.2564 24 15.6364 24 15.6364C24 15.6364 24 13.0164 23.6655 11.76ZM14.3636 18.0155V13.2573L18.5455 15.6364L14.3636 18.0155Z" fill="#4D545E"/>
</svg>
