<svg width="32" height="32" viewBox="0 0 32 32" fill="none" xmlns="http://www.w3.org/2000/svg">
<rect width="32" height="32" rx="8" fill="#0D1012"/>
<path d="M23.136 11.8414C22.6701 12.0441 22.1804 12.1852 21.679 12.2613C21.9134 12.2207 22.2584 11.794 22.3957 11.6213C22.6044 11.3609 22.7634 11.0635 22.8647 10.7444C22.8647 10.7207 22.8881 10.6868 22.8647 10.6699C22.8528 10.6634 22.8396 10.6599 22.8261 10.6599C22.8127 10.6599 22.7994 10.6634 22.7876 10.6699C22.2431 10.968 21.6635 11.1955 21.0627 11.3471C21.0417 11.3535 21.0194 11.3541 20.9982 11.3488C20.9769 11.3434 20.9575 11.3323 20.9421 11.3166C20.8953 11.2603 20.845 11.2071 20.7914 11.1575C20.5463 10.9355 20.2682 10.7538 19.9674 10.6191C19.5613 10.4507 19.1226 10.3777 18.6846 10.4058C18.2595 10.4329 17.8445 10.5482 17.4654 10.7444C17.092 10.9512 16.7639 11.2322 16.5007 11.5706C16.2239 11.9188 16.024 12.3228 15.9146 12.7557C15.8243 13.1673 15.8141 13.5928 15.8844 14.0085C15.8844 14.0796 15.8844 14.0898 15.8242 14.0796C13.436 13.7241 11.4766 12.8674 9.87556 11.0288C9.80523 10.9475 9.76838 10.9475 9.71144 11.0288C9.01476 12.0988 9.35305 13.7918 10.2239 14.6281C10.3411 14.7399 10.4617 14.8482 10.589 14.9498C10.1897 14.9211 9.80018 14.8118 9.44349 14.6281C9.3765 14.5841 9.33965 14.6078 9.33631 14.6891C9.32681 14.8017 9.32681 14.915 9.33631 15.0277C9.40619 15.5676 9.61668 16.0791 9.94624 16.5098C10.2758 16.9405 10.7126 17.2751 11.212 17.4792C11.3337 17.5319 11.4606 17.5716 11.5905 17.5977C11.2208 17.6712 10.8417 17.6827 10.4684 17.6315C10.388 17.6146 10.3579 17.6586 10.388 17.7365C10.8804 19.0909 11.9489 19.504 12.7326 19.7342C12.8398 19.7512 12.947 19.7512 13.0676 19.7783C13.0676 19.7783 13.0676 19.7783 13.0475 19.7986C12.8164 20.2252 11.8819 20.513 11.4531 20.662C10.6706 20.9462 9.83628 21.0548 9.00806 20.9803C8.87743 20.96 8.84729 20.9634 8.81379 20.9803C8.7803 20.9972 8.81379 21.0345 8.85064 21.0683C9.01811 21.1801 9.18558 21.2783 9.35975 21.3731C9.87826 21.659 10.4264 21.8861 10.9943 22.0503C13.9351 22.8697 17.2443 22.267 19.4516 20.0491C21.1866 18.3087 21.7962 15.908 21.7962 13.504C21.7962 13.4125 21.9067 13.3584 21.9704 13.311C22.4093 12.9652 22.7963 12.5569 23.1192 12.0988C23.1751 12.0305 23.2038 11.9435 23.1996 11.855C23.1996 11.8042 23.1996 11.8143 23.136 11.8414Z" fill="#4D545E"/>
</svg>
